<svg viewBox="0 0 42 42" fill="none" xmlns="http://www.w3.org/2000/svg">
  <path
    d="M35.3939 40.6244L29.1335 34.296L24.6905 38.7871L22.5196 36.5926C21.9474 36.0142 21.6613 35.2997 21.6613 34.4491C21.6613 33.5985 21.9474 32.884 22.5196 32.3056L32.5666 22.1495C33.1388 21.5711 33.8456 21.2819 34.6871 21.2819C35.5286 21.2819 36.2354 21.5711 36.8076 22.1495L38.9786 24.344L34.5356 28.8352L40.7456 35.1636C41.0486 35.4698 41.2 35.827 41.2 36.2353C41.2 36.6436 41.0486 37.0009 40.7456 37.3071L37.5144 40.6244C37.2115 40.9306 36.8581 41.0837 36.4542 41.0837C36.0503 41.0837 35.6969 40.9306 35.3939 40.6244ZM40.9981 8.16571L18.1271 31.2849L19.0864 32.3056C19.6586 32.884 19.9447 33.5985 19.9447 34.4491C19.9447 35.2997 19.6586 36.0142 19.0864 36.5926L16.9154 38.7871L12.4725 34.296L6.21204 40.6244C5.90912 40.9306 5.5557 41.0837 5.1518 41.0837C4.7479 41.0837 4.39449 40.9306 4.09156 40.6244L0.809858 37.3071C0.506932 37.0009 0.355469 36.6436 0.355469 36.2353C0.355469 35.827 0.506932 35.4698 0.809858 35.1636L7.07033 28.8352L2.62742 24.344L4.79839 22.1495C5.37058 21.5711 6.07741 21.2819 6.91887 21.2819C7.76033 21.2819 8.46716 21.5711 9.03935 22.1495L10.0491 23.1192L32.92 0H40.9981V8.16571ZM10.6045 18.2708L0.607907 8.16571V0H8.68594L18.6825 10.1051L16.562 12.2486L7.42375 3.06214H3.63717V6.88982L12.725 16.1273L10.6045 18.2708ZM15.9057 29.0903L37.9688 6.88982V3.06214H34.1822L12.1191 25.2627L15.9057 29.0903Z"
    fill="currentColor"
  />
</svg>
